<svg width="417" height="11" viewBox="0 0 417 11" fill="none" xmlns="http://www.w3.org/2000/svg">
<path d="M383.935 1.35385C374.89 1.1 365.69 0.846154 356.489 0.592308C353.526 0.507692 350.407 0.507692 347.444 0.423077C340.895 0.338462 334.345 0.253846 327.795 0.169231C324.208 0.0846154 320.466 0.0846154 316.879 0C315.787 0 314.696 0 313.76 0C311.421 0 309.082 0 306.587 0C295.827 0 285.066 0 274.306 0C271.811 0 269.16 0 266.665 0.0846154C260.271 0.169231 254.033 0.169231 247.64 0.253846C240.466 0.338462 233.293 0.338462 226.119 0.423077C214.58 0.592308 202.884 0.761538 191.344 0.930769C184.638 1.01538 177.933 1.1 171.227 1.18462C159.687 1.43846 148.147 1.69231 136.607 1.94615C130.214 2.11538 123.976 2.2 117.582 2.36923C105.574 2.79231 93.5667 3.13077 81.5589 3.46923C75.1652 3.63846 68.7715 3.80769 62.3778 4.06154C50.526 4.56923 38.5183 5.16154 26.6665 5.75385C24.1714 5.83846 21.5203 6.00769 18.8693 6.09231C13.8791 6.34615 8.73289 6.76923 3.58672 7.10769C3.27483 7.10769 2.96294 7.19231 2.65106 7.19231C2.02728 7.19231 1.55944 7.36154 1.09161 7.61538C0.311889 8.03846 0 8.54615 0 9.05385C0 9.56154 0.311889 10.0692 1.09161 10.4077C1.71539 10.7462 2.807 11 3.58672 11C9.8245 10.6615 15.9063 10.2385 22.1441 9.9C27.9141 9.64615 33.684 9.39231 39.4539 9.13846C45.6917 8.88462 51.9295 8.54615 58.3232 8.29231C60.8183 8.20769 63.3134 8.03846 65.9645 7.95385C75.789 7.7 85.4575 7.36154 95.282 7.10769C101.364 6.93846 107.446 6.76923 113.528 6.6C116.023 6.51538 118.518 6.43077 121.013 6.34615C130.681 6.09231 140.35 5.92308 150.019 5.66923C155.944 5.58462 161.714 5.41538 167.64 5.33077C169.668 5.33077 171.539 5.24615 173.566 5.24615C184.014 5.07692 194.463 4.99231 204.911 4.82308C210.681 4.73846 216.607 4.65385 222.377 4.56923C224.404 4.56923 226.587 4.48462 228.615 4.48462C239.375 4.4 250.135 4.4 261.051 4.31538C267.757 4.31538 274.462 4.23077 281.168 4.23077C292.552 4.23077 304.092 4.23077 315.476 4.31538C317.659 4.31538 319.998 4.4 322.181 4.4C328.575 4.48462 334.813 4.56923 341.206 4.73846C345.885 4.82308 350.719 4.90769 355.397 4.99231C358.828 5.07692 362.103 5.16154 365.534 5.24615C375.358 5.5 385.339 5.83846 395.163 6.17692C397.658 6.26154 400.153 6.34615 402.649 6.43077C405.3 6.51538 408.107 6.6 410.758 6.76923C411.225 6.76923 411.537 6.85385 412.005 6.93846C413.097 7.02308 414.032 7.02308 414.968 6.68462C415.904 6.43077 416.528 5.92308 416.839 5.41538C417.463 4.31538 416.216 3.13077 414.032 2.79231C412.161 2.53846 410.29 2.45385 408.574 2.28462C407.327 2.2 406.079 2.11538 404.832 2.11538C402.337 1.94615 399.842 1.94615 397.502 1.77692C393.136 1.69231 388.458 1.52308 383.935 1.35385Z" fill="#173AF3"/>
</svg>
